# xmcd
#
# Track frame offsets:
#	151
#	19742
#	29705
#	57697
#	77391
#	97284
#	117856
#	128608
#	141035
#	161925
#
# Disc length: 2547 seconds
#
# Revision: 1
# Processed by: cddbd v1.5.1PL0 Copyright (c) Steve Scherf et al.
# Submitted via: audiograbber 1.83.01
#
DISCID=8a09f10a
DTITLE=John Lee Hooker - Boom Boom
DYEAR=1992
DGENRE=
TTITLE0=Boom boom
TTITLE1=I'm bad like Jesse James
TTITLE2=Same old blues again
TTITLE3=Sugar mama
TTITLE4=Trick bag
TTITLE5=Boogie at Russian Hill
TTITLE6=Hittin' the bottle again
TTITLE7=Bottle up and go
TTITLE8=Thought I heard
TTITLE9=I ain't gonna shuffle no more
EXTD=
EXTT0=
EXTT1=
EXTT2=
EXTT3=
EXTT4=
EXTT5=
EXTT6=
EXTT7=
EXTT8=
EXTT9=
PLAYORDER=
